<svg width="104" height="104" viewBox="0 0 104 104" fill="none" xmlns="http://www.w3.org/2000/svg">
<path d="M52 3.31373C25.151 3.31373 3.31373 25.151 3.31373 52C3.31373 78.849 25.151 100.686 52 100.686C78.849 100.686 100.686 78.849 100.686 52C100.686 25.151 78.849 3.31373 52 3.31373Z" fill="#0E7B3D" stroke="white" stroke-width="5.37255"/>
<path d="M72.7793 41.8501L48.8744 65.7543C48.1572 66.4715 47.2158 66.8324 46.2744 66.8324C45.333 66.8324 44.3916 66.4715 43.6744 65.7543L31.7223 53.8022C30.284 52.3645 30.284 50.04 31.7223 48.6023C33.16 47.1639 35.4839 47.1639 36.9223 48.6023L46.2744 57.9544L67.5793 36.6502C69.017 35.2118 71.3409 35.2118 72.7793 36.6502C74.217 38.0879 74.217 40.4117 72.7793 41.8501Z" fill="white"/>
</svg>
