<svg width="72" height="72" viewBox="0 0 72 72" fill="none" xmlns="http://www.w3.org/2000/svg">
<g opacity="0.58">
<path d="M38.25 47.76H40.2C42.15 47.76 43.77 46.02 43.77 43.92C43.77 41.31 42.84 40.8 41.31 40.26L38.28 39.21V47.76H38.25Z"/>
<path d="M35.9096 5.70018C19.3496 5.76018 5.93962 19.2302 5.99962 35.7902C6.05962 52.3502 19.5296 65.7602 36.0896 65.7002C52.6496 65.6402 66.0596 52.1702 65.9996 35.6102C65.9396 19.0502 52.4696 5.67018 35.9096 5.70018ZM42.7796 36.0002C45.1196 36.8102 48.2696 38.5502 48.2696 43.9202C48.2696 48.5402 44.6396 52.2602 40.1996 52.2602H38.2496V54.0002C38.2496 55.2302 37.2296 56.2502 35.9996 56.2502C34.7696 56.2502 33.7496 55.2302 33.7496 54.0002V52.2602H32.6696C27.7496 52.2602 23.7596 48.1202 23.7596 43.0202C23.7596 41.7902 24.7796 40.7702 26.0096 40.7702C27.2396 40.7702 28.2596 41.7902 28.2596 43.0202C28.2596 45.6302 30.2396 47.7602 32.6696 47.7602H33.7496V37.6202L29.2196 36.0002C26.8796 35.1902 23.7296 33.4502 23.7296 28.0802C23.7296 23.4602 27.3596 19.7402 31.7996 19.7402H33.7496V18.0002C33.7496 16.7702 34.7696 15.7502 35.9996 15.7502C37.2296 15.7502 38.2496 16.7702 38.2496 18.0002V19.7402H39.3296C44.2496 19.7402 48.2396 23.8802 48.2396 28.9802C48.2396 30.2102 47.2196 31.2302 45.9896 31.2302C44.7596 31.2302 43.7396 30.2102 43.7396 28.9802C43.7396 26.3702 41.7596 24.2402 39.3296 24.2402H38.2496V34.3802L42.7796 36.0002Z"/>
<path d="M28.2603 28.1098C28.2603 30.7198 29.1903 31.2298 30.7203 31.7698L33.7503 32.8198V24.2398H31.8003C29.8503 24.2398 28.2603 25.9798 28.2603 28.1098Z"/>
</g>
</svg>
