<svg width="121" height="82" viewBox="0 0 121 82" fill="none" xmlns="http://www.w3.org/2000/svg">
<path d="M106.22 0H14.7799C6.63062 0 0 6.61891 0 14.7538V67.2462C0 75.3811 6.63062 82 14.7799 82H106.22C114.369 82 121 75.3811 121 67.2462V14.7554C121.002 6.61891 114.371 0 106.22 0ZM98.9981 9.62517L60.5 34.3843L22.0019 9.62517H98.9981ZM106.22 72.3764H14.7799C11.9467 72.3764 9.6422 70.0744 9.6422 67.2478V15.0281L57.5254 45.7645C57.5897 45.8046 57.6588 45.8318 57.7246 45.8687C57.7938 45.9072 57.8645 45.9441 57.9352 45.9794C58.3064 46.1703 58.6889 46.3243 59.0794 46.4254C59.1196 46.4366 59.1597 46.4414 59.1999 46.451C59.629 46.5521 60.0629 46.6147 60.4968 46.6147H60.5C60.5032 46.6147 60.5064 46.6147 60.5064 46.6147C60.9403 46.6147 61.3742 46.5537 61.8033 46.451C61.8435 46.4414 61.8837 46.4366 61.9238 46.4254C62.3143 46.3243 62.6952 46.1703 63.068 45.9794C63.1387 45.9441 63.2095 45.9072 63.2786 45.8687C63.3444 45.8318 63.4136 45.8046 63.4778 45.7645L111.361 15.0281V67.2462C111.359 70.0744 109.053 72.3764 106.22 72.3764Z" fill="white"/>
</svg>
