<svg width="23" height="20" viewBox="0 0 23 20" fill="none" xmlns="http://www.w3.org/2000/svg">
<path d="M19.5 16.8V6.96614L20.9855 7.85746C21.4591 8.14161 22.0734 7.98805 22.3575 7.51447C22.6417 7.04089 22.4881 6.42663 22.0145 6.14248L16.9926 3.12932L13.1514 0.81504L13.1513 0.814967C12.8721 0.646748 12.6578 0.517644 12.4762 0.420566C12.4338 0.396857 12.3908 0.374804 12.3472 0.354409C12.196 0.28065 12.065 0.231554 11.9304 0.20189C11.6469 0.139409 11.3531 0.139409 11.0696 0.201891C10.9346 0.231633 10.8033 0.280907 10.6516 0.354986C10.6088 0.375046 10.5666 0.396705 10.5249 0.419962C10.3431 0.517113 10.1285 0.6464 9.8487 0.81498L9.84864 0.815012L6.00169 3.13278L0.985533 6.14248C0.511953 6.42663 0.358388 7.04089 0.642536 7.51447C0.926684 7.98805 1.54094 8.14161 2.01452 7.85746L3.5 6.96618V16.8C3.5 17.9202 3.5 18.4802 3.71799 18.908C3.90973 19.2844 4.21569 19.5903 4.59202 19.7821C5.01984 20 5.5799 20 6.7 20L8.5 20V14C8.5 12.3431 9.84315 11 11.5 11C13.1569 11 14.5 12.3431 14.5 14V20L16.3 20C17.4201 20 17.9802 20 18.408 19.7821C18.7843 19.5903 19.0903 19.2844 19.282 18.908C19.5 18.4802 19.5 17.9202 19.5 16.8Z" fill="white"/>
</svg>
