<svg width="127" height="87" viewBox="0 0 127 87" fill="none" xmlns="http://www.w3.org/2000/svg">
<path d="M79.3929 31.3127C80.8068 30.9331 82.1876 30.5315 83.5849 30.1959C86.5006 29.4863 88.4426 30.9276 88.5801 33.8983C88.6241 34.828 88.6296 35.7743 88.5416 36.6985C88.2941 39.2016 86.7977 40.7144 84.3056 41.083C84.0415 41.1215 83.7775 41.1711 83.5354 41.2096C84.1846 43.4541 84.9603 45.6106 85.4059 47.8331C85.868 50.1107 86.2146 52.4542 86.2476 54.7703C86.3521 61.823 86.2916 68.8811 86.2861 75.9338C86.2861 79.4822 84.4321 81.3471 80.8893 81.3746C79.2499 81.3856 77.616 81.3911 75.9766 81.3746C72.5823 81.3306 70.7119 79.4491 70.6844 76.0603C70.6734 74.432 70.6844 72.8036 70.6844 71.1312H17.7948C17.7948 72.9246 17.8113 74.6355 17.7948 76.3464C17.7618 79.3116 16.0234 81.2041 13.0747 81.3471C11.0502 81.4461 9.02023 81.4461 6.99575 81.3471C3.99204 81.1986 2.29214 79.3336 2.27563 76.2364C2.25363 70.504 2.29764 64.7772 2.25913 59.0448C2.22612 54.6327 2.22612 50.2317 3.51343 45.9572C3.98104 44.3948 4.53667 42.86 5.05929 41.3086C5.01528 41.2756 4.95477 41.2096 4.88875 41.1931C1.17537 40.4999 0.00359269 39.0971 0.00359269 35.3397C0.00359269 34.8335 -0.00740992 34.3274 0.00909399 33.8213C0.0971149 31.0872 2.06108 29.5303 4.72921 30.1299C6.20356 30.46 7.65591 30.9001 9.22378 31.3182C9.48785 30.7021 9.74091 30.1464 9.97196 29.5798C11.1822 26.6256 12.3815 23.6714 13.6028 20.7227C15.3082 16.6022 18.7741 14.2642 23.2466 14.2642C37.2419 14.2532 51.2318 14.2587 65.2271 14.2642C69.7877 14.2642 73.1985 16.5692 74.9424 20.7777C76.3562 24.194 77.7591 27.6158 79.1674 31.0322C79.1949 31.0982 79.2664 31.1532 79.404 31.3182L79.3929 31.3127ZM44.1681 42.0788C53.6743 42.0788 63.1861 42.0788 72.6924 42.0788C75.9271 42.0788 76.8018 40.7915 75.5915 37.8373C73.424 32.545 71.262 27.2528 69.067 21.9715C67.9832 19.3694 66.0028 18.0326 63.1696 18.0216C59.5827 18.0106 56.0014 18.0216 52.4145 18.0216C43.4144 18.0216 34.4088 18.0271 25.4086 18.0216C22.7735 18.0216 20.7105 19.1218 19.6818 21.5039C17.2392 27.1427 14.9451 32.8476 12.6511 38.5469C11.8369 40.5769 12.7501 41.8972 14.9396 42.0678C15.3687 42.1008 15.7978 42.0898 16.2269 42.0898C25.5407 42.0898 34.8544 42.0898 44.1681 42.0898V42.0788ZM68.5389 62.076C70.7229 62.076 72.9069 62.098 75.0854 62.0705C76.4718 62.054 77.1704 61.3554 77.1869 59.969C77.2144 58.0216 77.2144 56.0686 77.1869 54.1211C77.1704 52.6633 76.4883 51.9701 75.0249 51.9646C70.7779 51.9426 66.5254 51.9426 62.2784 51.9646C60.815 51.9701 60.1329 52.6633 60.1109 54.1211C60.0834 56.0301 60.0889 57.939 60.1109 59.8535C60.1274 61.3829 60.804 62.0595 62.3334 62.076C64.4019 62.098 66.4649 62.076 68.5334 62.076H68.5389ZM19.7588 62.076C21.8603 62.076 23.9618 62.0925 26.0578 62.076C27.5706 62.0595 28.2638 61.3774 28.2858 59.8535C28.3133 57.95 28.3133 56.0411 28.2858 54.1376C28.2638 52.6798 27.5706 51.9756 26.1293 51.9701C21.8493 51.9481 17.5693 51.9481 13.2947 51.9701C11.8974 51.9756 11.2318 52.6688 11.2153 54.0716C11.1877 55.9366 11.1988 57.807 11.2098 59.672C11.2208 61.4489 11.8259 62.0705 13.5808 62.0815C15.6438 62.0925 17.7068 62.0815 19.7643 62.0815L19.7588 62.076Z" fill="#6C7670"/>
<path d="M126.125 29.4013C125.85 29.9899 125.618 30.6116 125.283 31.1672C124.155 33.0541 122.466 34.0444 120.271 34.0774C117.741 34.1159 115.205 34.0884 112.674 34.0939C112.256 34.0939 111.838 34.0939 111.299 34.0939V35.7168C111.299 51.4615 111.299 67.2062 111.293 82.951C111.293 83.5341 111.271 84.1283 111.15 84.6894C110.93 85.7126 110.061 86.3178 109.01 86.2848C107.992 86.2518 107.134 85.5476 106.975 84.5354C106.898 84.0402 106.914 83.5231 106.914 83.017C106.914 67.2337 106.914 51.4505 106.914 35.6673C106.914 35.2051 106.914 34.743 106.914 34.0884C106.166 34.0884 105.484 34.0884 104.802 34.0884C102.656 34.0884 100.516 34.0994 98.3705 34.0884C94.6241 34.0664 92.1155 31.7833 92.066 28.0479C91.978 20.7202 91.978 13.3925 92.066 6.07022C92.11 2.43386 94.4866 0.0903001 98.1505 0.051791C105.44 -0.0307286 112.723 0.00227882 120.013 0.0352867C123.258 0.0517906 125.162 1.87823 126.13 4.84343V29.4068L126.125 29.4013ZM101.072 17.0013V24.5931C101.072 27.5693 101.149 27.6188 104.163 27.5033C105.187 27.4648 105.654 27.0192 105.638 25.996C105.616 24.5161 105.654 23.0362 105.627 21.5619C105.61 20.6267 105.984 20.2416 106.953 20.2526C108.388 20.2746 109.841 20.2966 111.266 20.1096C115.094 19.6089 116.948 17.4964 117.102 13.6455C117.256 9.86612 115.37 7.35203 111.629 6.96693C108.509 6.64236 105.341 6.74688 102.194 6.69737C101.27 6.68087 101.066 7.33002 101.066 8.12771C101.077 11.0874 101.066 14.0416 101.066 17.0013H101.072Z" fill="#6C7670"/>
<path d="M105.643 13.42C105.636 11.3148 106.691 10.3393 108.807 10.4933C109.192 10.5208 109.577 10.5868 109.967 10.6308C112.207 10.9059 113.323 13.0074 112.212 14.9824C111.97 15.4115 111.447 15.8791 110.996 15.9451C109.505 16.1706 107.993 16.2697 106.48 16.2917C106.205 16.2917 105.753 15.7525 105.682 15.4005C105.55 14.7678 105.643 14.0856 105.643 13.4255V13.42Z" fill="#6C7670"/>
</svg>
