<svg width="197" height="197" viewBox="0 0 197 197" fill="none" xmlns="http://www.w3.org/2000/svg">
<rect opacity="0.3" y="17" width="180" height="180" rx="40" fill="white"/>
<path d="M115.667 118C107.563 118 101 124.563 101 132.667C101 135.417 101.77 138.02 103.127 140.22C105.657 144.473 110.313 147.333 115.667 147.333C121.02 147.333 125.677 144.473 128.207 140.22C129.563 138.02 130.333 135.417 130.333 132.667C130.333 124.563 123.77 118 115.667 118ZM123.257 131.09L115.447 138.313C114.933 138.79 114.237 139.047 113.577 139.047C112.88 139.047 112.183 138.79 111.633 138.24L108.003 134.61C106.94 133.547 106.94 131.787 108.003 130.723C109.067 129.66 110.827 129.66 111.89 130.723L113.65 132.483L119.517 127.057C120.617 126.03 122.377 126.103 123.403 127.203C124.43 128.303 124.357 130.027 123.257 131.09Z" fill="white"/>
<path d="M126.667 90.6833V92.3333C126.667 94.35 125.017 96 123 96H56.9999C54.9833 96 53.3333 94.35 53.3333 92.3333V90.6467C53.3333 82.25 60.1166 75.4667 68.5133 75.4667H111.45C119.847 75.4667 126.667 82.2867 126.667 90.6833Z" fill="white"/>
<path d="M53.3333 105.167V123.353C53.3333 131.75 60.1166 138.533 68.5133 138.533H91.4666C93.5933 138.533 95.4266 136.737 95.2433 134.61C94.7299 129 96.5266 122.913 101.513 118.073C103.567 116.057 106.097 114.517 108.847 113.637C113.43 112.17 117.867 112.353 121.79 113.673C124.173 114.48 126.667 112.757 126.667 110.227V105.13C126.667 103.113 125.017 101.463 123 101.463H56.9999C54.9833 101.5 53.3333 103.15 53.3333 105.167ZM75.3333 126.25H67.9999C66.4966 126.25 65.2499 125.003 65.2499 123.5C65.2499 121.997 66.4966 120.75 67.9999 120.75H75.3333C76.8366 120.75 78.0833 121.997 78.0833 123.5C78.0833 125.003 76.8366 126.25 75.3333 126.25Z" fill="white"/>
<path d="M163 3.31373C146.077 3.31373 132.314 17.0766 132.314 34C132.314 50.9234 146.077 64.6863 163 64.6863C179.923 64.6863 193.686 50.9234 193.686 34C193.686 17.0766 179.923 3.31373 163 3.31373Z" fill="#FE0000" stroke="#021209" stroke-width="5.37255"/>
</svg>
