<svg width="197" height="203" viewBox="0 0 197 203" fill="none" xmlns="http://www.w3.org/2000/svg">
<rect opacity="0.3" y="22.041" width="180" height="180" rx="40" fill="white"/>
<path d="M115.667 123.041C107.563 123.041 101 129.604 101 137.708C101 140.458 101.77 143.061 103.127 145.261C105.657 149.514 110.313 152.374 115.667 152.374C121.02 152.374 125.677 149.514 128.207 145.261C129.563 143.061 130.333 140.458 130.333 137.708C130.333 129.604 123.77 123.041 115.667 123.041ZM123.257 136.131L115.447 143.354C114.933 143.831 114.237 144.088 113.577 144.088C112.88 144.088 112.183 143.831 111.633 143.281L108.003 139.651C106.94 138.588 106.94 136.828 108.003 135.764C109.067 134.701 110.827 134.701 111.89 135.764L113.65 137.524L119.517 132.098C120.617 131.071 122.377 131.144 123.403 132.244C124.43 133.344 124.357 135.068 123.257 136.131Z" fill="white"/>
<path d="M126.667 95.7245V97.3745C126.667 99.3911 125.017 101.041 123 101.041H56.9999C54.9833 101.041 53.3333 99.3911 53.3333 97.3745V95.6878C53.3333 87.2911 60.1166 80.5078 68.5133 80.5078H111.45C119.847 80.5078 126.667 87.3278 126.667 95.7245Z" fill="white"/>
<path d="M53.3333 110.208V128.394C53.3333 136.791 60.1166 143.574 68.5133 143.574H91.4666C93.5933 143.574 95.4266 141.778 95.2433 139.651C94.7299 134.041 96.5266 127.954 101.513 123.114C103.567 121.098 106.097 119.558 108.847 118.678C113.43 117.211 117.867 117.394 121.79 118.714C124.173 119.521 126.667 117.798 126.667 115.268V110.171C126.667 108.154 125.017 106.504 123 106.504H56.9999C54.9833 106.541 53.3333 108.191 53.3333 110.208ZM75.3333 131.291H67.9999C66.4966 131.291 65.2499 130.044 65.2499 128.541C65.2499 127.038 66.4966 125.791 67.9999 125.791H75.3333C76.8366 125.791 78.0833 127.038 78.0833 128.541C78.0833 130.044 76.8366 131.291 75.3333 131.291Z" fill="white"/>
<path d="M163 3.31373C146.118 3.31373 132.314 16.8334 132.314 33.549C132.314 50.2647 146.118 63.7844 163 63.7844C179.882 63.7844 193.686 50.2647 193.686 33.549C193.686 16.8334 179.882 3.31373 163 3.31373Z" fill="#FE0000" stroke="#021209" stroke-width="5.37255"/>
<path d="M156.499 19.9091L162.365 29.8239H162.592L168.487 19.9091H175.433L166.555 34.4545L175.632 49H168.558L162.592 39.071H162.365L156.399 49H149.354L158.459 34.4545L149.524 19.9091H156.499Z" fill="white"/>
</svg>
