<svg width="100" height="100" viewBox="0 0 100 100" fill="none" xmlns="http://www.w3.org/2000/svg">
<g clip-path="url(#clip0_26_217)">
<path d="M50.0964 100C48.1719 99.7448 46.237 99.5521 44.3282 99.2214C23.112 95.5417 6.61984 79.6875 2.02869 58.5833C-2.94006 35.75 8.50786 12.0937 29.5235 1.76042C30.711 1.17708 31.5313 1.26562 32.1563 2.04427C32.7709 2.8125 32.6797 3.66146 31.8698 4.6849C24.737 13.6797 21.2683 23.9297 21.4792 35.3906C21.8386 54.8516 34.948 72.6016 53.4141 78.7943C63.948 82.3255 74.4792 82.3594 84.8933 78.5104C87.9948 77.3646 90.8256 75.474 93.7761 73.9193C94.0339 73.7839 94.2657 73.6016 94.5131 73.4453C95.3308 72.9297 96.1198 72.9688 96.8334 73.6198C97.4922 74.2188 97.6094 75.1901 97.0052 76.013C95.3724 78.2344 93.8204 80.5391 91.9818 82.5807C83.5157 91.974 72.987 97.5937 60.4662 99.4453C59.0287 99.6589 57.5834 99.8151 56.1433 100H50.1016H50.0964Z" fill="#6C7670"/>
<path d="M42.7055 34.6824C44.807 34.6824 46.8148 34.6824 48.8227 34.6824C49.1482 34.6824 49.4737 34.6954 49.7966 34.6772C50.9425 34.6173 51.6794 33.9089 51.6872 32.8725C51.6951 31.8282 50.9763 31.0704 49.8253 31.0444C47.9425 31.0027 46.0596 31.0313 44.1768 31.0287C43.7237 31.0287 43.2706 31.0287 42.7393 31.0287V27.4949H57.1456C57.1456 28.6121 57.1456 29.7032 57.1456 30.797C57.1456 32.81 57.1742 34.823 57.1195 36.836C57.1091 37.2084 56.8617 37.698 56.5649 37.922C53.2029 40.461 51.5232 43.8412 51.7576 48.0209C51.8617 49.9011 52.2836 51.8048 52.8513 53.6069C53.4242 55.4194 54.7602 56.7319 56.4997 57.6042C56.781 57.7449 57.1143 58.1381 57.1169 58.4168C57.1482 64.2266 57.1352 70.0391 57.1273 75.8516C57.1273 75.9089 57.0779 75.9688 56.9789 76.185C55.1768 75.5235 53.2784 75.0183 51.5648 74.1511C48.7393 72.7214 46.0206 71.073 43.2862 69.4636C42.9763 69.2813 42.6872 68.7657 42.6846 68.4037C42.6534 57.3647 42.6586 46.3256 42.6612 35.2865C42.6612 35.1277 42.6846 34.9714 42.7055 34.6824Z" fill="#6C7670"/>
<path d="M71.7474 32.5443C73.9817 35.7578 77.4583 37.1146 80.7994 38.7109C82.3099 39.4323 83.7812 40.3047 85.1197 41.3073C86.9244 42.6562 87.9479 44.5781 87.9192 46.8437C87.8984 48.5417 87.7343 50.2865 87.2812 51.9141C86.7213 53.9271 85.5 54.6146 83.4244 54.6146C75.5312 54.6146 67.638 54.5911 59.7448 54.6354C58.0546 54.6458 56.9114 53.9219 56.2786 52.4635C54.789 49.0234 54.3906 43.3333 59.5416 40.3151C60.7421 39.612 61.9843 38.9687 63.2448 38.375C67.6692 36.2969 68.5885 36.0104 71.7474 32.5417V32.5443Z" fill="#6C7670"/>
<path d="M60.8438 76.9557V58.3281H82.5182C82.5365 58.625 82.5729 58.9089 82.5729 59.1927C82.5755 64.3516 82.5729 69.513 82.5807 74.6719C82.5807 75.1953 82.5443 75.5677 81.9167 75.7578C75.1589 77.8177 68.3073 78.3229 61.3411 77.0911C61.1849 77.0625 61.0339 77.0078 60.8438 76.9531V76.9557ZM78.9323 65.5781C78.9323 64.9297 78.9688 64.2786 78.9245 63.6328C78.8568 62.6615 78.1615 61.9818 77.25 61.9245C76.2734 61.862 75.4245 62.4688 75.3542 63.4792C75.2604 64.8333 75.2682 66.2031 75.3516 67.5599C75.4089 68.5 76.2656 69.1667 77.1432 69.1563C78.0703 69.1432 78.8516 68.4167 78.9271 67.4297C78.974 66.8177 78.9349 66.1979 78.9349 65.5807L78.9323 65.5781ZM68.0339 65.513C68.0339 64.8958 68.0625 64.2786 68.0286 63.6641C67.974 62.6484 67.2604 61.9505 66.2969 61.9193C65.3125 61.8906 64.5234 62.5156 64.4661 63.5417C64.3932 64.8672 64.3958 66.2005 64.4714 67.526C64.5286 68.5156 65.401 69.2031 66.3229 69.1484C67.2682 69.0938 67.9818 68.3672 68.0339 67.3594C68.0651 66.7448 68.0391 66.1276 68.0391 65.5104L68.0339 65.513Z" fill="#6C7670"/>
<path d="M49.9919 8.82031C51.2523 10.4219 52.9659 11.3802 54.7523 12.263C55.9711 12.8646 57.2029 13.4714 58.3122 14.2448C60.8982 16.0495 61.6508 20.0859 60.0127 22.7995C59.5883 23.5026 59.0154 23.7995 58.1664 23.7943C52.6846 23.7656 47.2029 23.7578 41.7211 23.7995C40.6404 23.8073 40.0206 23.3229 39.5987 22.4349C38.0831 19.2526 39.1404 15.625 42.143 13.7917C42.9711 13.2865 43.8539 12.8724 44.7107 12.4141C45.6534 11.9115 46.6404 11.4766 47.5232 10.8802C48.3721 10.3073 49.1117 9.56771 49.9945 8.82031H49.9919Z" fill="#6C7670"/>
<path d="M65.5313 15.7422C65.5131 13.1901 67.1172 10.8203 69.4844 9.90104C70.698 9.42969 71.6875 9.74219 72.1276 10.737C72.5729 11.737 72.1328 12.6693 70.9558 13.2266C69.6459 13.8464 69.0521 14.8073 69.2084 16.0547C69.3412 17.125 70.1771 18.0286 71.2552 18.2734C72.3959 18.5312 73.4688 18.0026 74.1771 16.8359C74.8386 15.7474 75.8438 15.3984 76.7761 15.9349C77.7032 16.4688 77.9167 17.5339 77.3151 18.6562C75.9662 21.1771 73.0808 22.4609 70.2969 21.7812C67.5521 21.1094 65.5521 18.5781 65.5313 15.7448V15.7422Z" fill="#6C7670"/>
<path d="M73.4844 27.3828C73.5 28.3568 72.711 29.1901 71.7344 29.224C70.7344 29.2604 69.8594 28.4062 69.8672 27.3984C69.8751 26.4297 70.7032 25.6016 71.6693 25.599C72.6381 25.5964 73.4662 26.4115 73.4818 27.3828H73.4844Z" fill="#021209"/>
<path d="M78.9326 65.5781C78.9326 66.1953 78.9717 66.8125 78.9248 67.4271C78.8493 68.4167 78.0706 69.1406 77.141 69.1537C76.2634 69.1667 75.4066 68.4974 75.3493 67.5573C75.266 66.2005 75.2607 64.8307 75.3519 63.4766C75.4222 62.4662 76.2712 61.8594 77.2477 61.9219C78.1592 61.9792 78.8571 62.6589 78.9222 63.6302C78.9665 64.2761 78.93 64.9271 78.93 65.5755L78.9326 65.5781Z" fill="#EDEEEE"/>
<path d="M68.0362 65.513C68.0362 66.1302 68.0622 66.7474 68.031 67.362C67.9789 68.3724 67.2679 69.0963 66.32 69.151C65.3982 69.2031 64.5258 68.5156 64.4685 67.5286C64.3929 66.2031 64.3903 64.8698 64.4633 63.5442C64.5205 62.5182 65.3096 61.8932 66.294 61.9218C67.2575 61.9505 67.9711 62.6484 68.0258 63.6666C68.0596 64.2812 68.031 64.8984 68.0336 65.5156L68.0362 65.513Z" fill="#EDEEEE"/>
</g>
<defs>
<clipPath id="clip0_26_217">
<rect width="100" height="100" fill="white"/>
</clipPath>
</defs>
</svg>
