<svg width="306" height="323" viewBox="0 0 306 323" fill="none" xmlns="http://www.w3.org/2000/svg">
<path d="M206.649 145.556C219.331 145.556 229.566 134.753 229.566 121.375C229.566 107.994 219.328 97.1944 206.649 97.1944C193.967 97.1944 183.732 107.997 183.732 121.375C183.732 134.756 193.97 145.556 206.649 145.556ZM99.6969 145.556C112.379 145.556 122.614 134.753 122.614 121.375C122.614 107.994 112.376 97.1944 99.6969 97.1944C87.015 97.1944 76.7797 107.997 76.7797 121.375C76.7797 134.756 87.0181 145.556 99.6969 145.556ZM153.02 0.46936C68.6768 0.46936 0.384979 72.6916 0.384979 161.675C0.384979 250.658 68.6791 322.881 153.02 322.881C237.509 322.884 305.956 250.662 305.956 161.675C305.956 72.69 237.508 0.46936 153.02 0.46936ZM153.171 290.651C85.6385 290.651 30.9423 232.939 30.9423 161.683C30.9423 90.4274 85.6416 32.7154 153.171 32.7154C220.703 32.7154 275.399 90.4274 275.399 161.683C275.399 232.939 220.703 290.651 153.171 290.651ZM153.171 193.929C117.572 193.929 87.1662 217.385 74.9449 250.351H100.536C111.155 231.169 130.636 218.109 153.172 218.109C175.707 218.109 195.189 231.168 205.807 250.351H231.398C219.176 217.385 188.77 193.929 153.172 193.929H153.171Z" fill="white"/>
</svg>
