<svg width="288" height="400" viewBox="0 0 288 400" fill="none" xmlns="http://www.w3.org/2000/svg">
<g clip-path="url(#clip0_107_294)">
<path opacity="0.2" d="M189.016 142.184C189.016 117.113 168.676 96.7966 143.623 96.7966C118.569 96.7966 98.2296 117.113 98.2296 142.184C98.2296 159.207 107.605 174.017 121.465 181.789L122.406 151.671C122.406 139.35 132.401 129.353 144.735 129.353H146.003C155.717 129.353 163.59 137.228 163.59 146.944V182.913C178.62 175.526 189.01 160.079 189.01 142.189L189.016 142.184Z" fill="white"/>
<path d="M163.596 146.939C163.596 137.222 155.722 129.347 146.008 129.347H144.741C132.406 129.347 122.411 139.344 122.411 151.665L121.471 181.783L119.378 248.14C118.902 250.188 118.632 296.326 118.632 296.326C114.733 292.351 110.392 287.803 106.493 283.449C97.3866 273.291 80.6595 266.443 69.5406 265.181C63.6801 264.51 59.213 265.313 56.2311 267.55C55.2792 268.278 54.3445 269.087 53.4729 269.965C47.7328 275.62 43.4034 284.751 47.4117 291.439C49.1435 294.365 52.1196 296.303 55.285 298.34C59.4768 301.058 66.5358 304.001 71.8401 310.775C80.7283 322.149 101.303 347.569 113.947 361.135C116.58 362.769 122.148 368.327 124.774 369.732C132.756 374.831 139.276 379.632 141.536 382.231C143.302 384.255 153.75 389.607 153.75 389.607C162.196 394.958 177.57 399.96 195.33 399.96C213.089 399.96 229.157 401.021 241.055 390.553H241.692L242.007 389.762C254.112 378.669 261.642 363.303 261.642 346.308V265.066C261.642 261.086 260.764 247.739 249.548 243.729C244.158 241.814 239.06 242.536 234.713 244.412L233.698 244.458L233.383 244.481C231.433 237.15 226.559 232.418 219.351 231.162C210.646 229.654 204.613 232.258 200.984 234.891C197.377 227.136 190.146 223.092 180.357 223.918C173.017 224.538 167.558 228.145 163.596 232.895V146.933V146.939Z" fill="white"/>
<path d="M244.909 217.563L253.918 227.589C255.649 229.539 258.792 229.419 260.317 227.308C277.687 203.201 287.257 174.183 287.257 143.663C287.263 64.4412 222.826 0 143.629 0C138.192 0 132.682 0.303995 127.234 0.911985C61.1398 8.27669 7.98801 61.6364 0.854466 127.798C-3.03343 163.802 6.49135 198.922 26.9286 227.308C28.4425 229.43 31.5849 229.539 33.3396 227.6L42.3368 217.58C43.6156 216.163 43.7131 214.058 42.6293 212.487C28.2074 191.408 20.638 166.239 21.395 140.067C23.2242 76.5379 74.3575 24.4515 137.797 21.4919C207.94 18.0389 265.914 74.278 265.914 143.658C265.914 168.482 258.345 192.354 244.605 212.464C243.533 214.047 243.63 216.135 244.915 217.557L244.909 217.563Z" fill="white"/>
<path opacity="0.5" d="M204.533 172.618L214.07 183.229C216.019 185.414 219.563 184.915 220.87 182.311C226.892 170.409 230.063 157.315 230.063 143.669C230.063 102.968 201.173 67.3894 161.348 59.0496C149.73 56.5889 137.527 56.5889 125.875 59.0496C86.0728 67.3894 57.1831 102.968 57.1831 143.669C57.1831 157.326 60.3542 170.409 66.3638 182.311C67.6942 184.921 71.2151 185.42 73.1762 183.229L82.7067 172.618C83.7791 171.424 84.0257 169.738 83.4235 168.264C80.218 160.475 78.5321 152.124 78.5321 143.663C78.5321 116.447 95.7352 91.8638 121.328 82.4916C135.623 77.2721 151.628 77.2721 165.912 82.4916C191.511 91.8581 208.702 116.447 208.702 143.663C208.702 152.124 207.016 160.475 203.828 168.264C203.22 169.744 203.467 171.436 204.533 172.618V172.618Z" fill="white"/>
</g>
<defs>
<clipPath id="clip0_107_294">
<rect width="287.263" height="400" fill="white"/>
</clipPath>
</defs>
</svg>
