<svg width="100" height="100" viewBox="0 0 100 100" fill="none" xmlns="http://www.w3.org/2000/svg">
<path d="M56.7316 29.6473C57.366 28.9442 57.941 28.9817 58.7098 29.4348C64.3316 32.7504 70.0473 32.9692 75.7941 29.7661C76.4879 29.3786 76.9473 29.4536 77.5598 29.8661C83.4285 33.8255 87.8754 39.0973 91.5066 45.0879C95.8816 52.3036 98.8379 60.0504 99.6129 68.5036C100.3 76.0098 99.2098 83.1473 94.3473 89.2598C90.3348 94.3067 84.9004 97.1004 78.7379 98.4254C68.6191 100.607 58.516 100.622 48.7004 96.9442C35.2035 91.8848 31.5723 79.8254 32.4785 69.9629C33.2285 61.8129 36.1723 54.4973 40.8035 47.8036C41.2973 47.0879 41.8035 46.788 42.6973 46.7942C46.0848 46.8192 49.4941 46.9598 52.8566 46.6504C56.816 46.2879 59.4348 43.8754 60.5285 40.0973C61.6379 36.2661 60.5254 32.9505 57.5223 30.3005C57.266 30.0755 56.9973 29.8692 56.7316 29.6473ZM56.8441 78.1161C57.5816 77.6129 58.2441 77.2879 58.7379 76.7973C64.4348 71.1379 70.1066 65.4536 75.7816 59.7723C76.0285 59.5254 76.3035 59.2848 76.4848 58.9911C77.0129 58.1286 76.9785 57.2629 76.266 56.5254C75.5566 55.7911 74.6879 55.7192 73.8129 56.2192C73.4816 56.4067 73.2066 56.7067 72.9348 56.9786C67.2816 62.6254 61.6316 68.2786 55.9848 73.9317C55.7098 74.2067 55.3129 74.4786 55.2441 74.8098C55.1066 75.4536 54.9473 76.2379 55.2004 76.7786C55.4473 77.3098 56.1941 77.6129 56.8473 78.1129L56.8441 78.1161ZM58.866 55.9192C56.6473 55.9254 54.8473 57.7348 54.8754 59.9286C54.9035 62.0723 56.6816 63.8567 58.8223 63.8942C61.0098 63.9317 62.8348 62.1286 62.8441 59.9129C62.8566 57.6754 61.1004 55.9161 58.8629 55.9223L58.866 55.9192ZM72.8504 77.8348C75.091 77.8348 76.8348 76.0754 76.8223 73.8348C76.8098 71.6254 74.9785 69.8223 72.791 69.8629C70.641 69.9036 68.8723 71.6848 68.8566 73.8317C68.8379 76.0442 70.6254 77.8379 72.8473 77.8348H72.8504Z" fill="#6C7670"/>
<path d="M68.6748 0.000606784C70.8998 -0.0150182 74.1904 0.266232 77.3498 1.41311C83.4654 3.62873 85.8685 8.49748 83.7279 14.6194C81.7998 20.1256 78.1342 24.1912 72.8967 26.7756C69.606 28.3975 66.206 28.56 62.8467 27.0287C56.7029 24.2319 52.6185 19.61 51.0029 13.0069C49.8654 8.35686 51.8154 4.38186 56.081 2.18811C58.9248 0.725607 62.6717 0.0131075 68.6779 0.00373245L68.6748 0.000606784Z" fill="#6C7670"/>
<path d="M16.9326 61.0225C16.9326 65.9318 16.9295 70.8443 16.9357 75.7537C16.9357 77.4537 16.4045 78.9568 14.9982 79.9225C14.2732 80.4225 13.2951 80.7506 12.417 80.7881C9.81074 80.9006 7.19823 80.8506 4.58573 80.8225C2.24823 80.8006 0.385735 79.1006 0.0638602 76.7568C0.0263602 76.4881 0.00761013 76.2131 0.00761013 75.9412C0.00761013 65.8881 -0.0173901 55.8318 0.0232349 45.7787C0.0357349 42.7725 1.98886 40.9475 4.97949 40.9318C7.31699 40.9225 9.65449 40.9193 11.992 40.9318C14.9482 40.9475 16.892 42.835 16.917 45.8225C16.9576 50.8881 16.9264 55.9537 16.9295 61.0225H16.9326Z" fill="#6C7670"/>
<path d="M28.282 73.7443H20.9258V72.5943C20.9258 64.7599 20.9352 56.9224 20.9102 49.088C20.9102 48.3255 21.0883 47.9474 21.8539 47.6443C23.9727 46.8099 25.1352 45.0568 25.7289 42.9536C26.4727 40.313 27.607 37.9224 29.632 36.0255C32.4133 33.4161 35.7664 32.2568 39.532 32.2318C43.507 32.2036 47.482 32.2005 51.4602 32.2318C54.6727 32.2568 56.9352 34.4849 56.9258 37.5318C56.9195 40.563 54.6383 42.788 51.4258 42.8193C47.8414 42.8536 44.2539 42.8536 40.6695 42.8068C39.832 42.7943 39.332 43.0755 38.8414 43.7318C32.3383 52.4255 28.5258 62.0724 28.3383 73.0255C28.3352 73.2161 28.3102 73.4068 28.282 73.7443Z" fill="#6C7670"/>
<path d="M56.845 78.1163C56.1888 77.6163 55.445 77.3131 55.1982 76.7819C54.945 76.2413 55.1044 75.4569 55.2419 74.8131C55.3107 74.4819 55.7107 74.21 55.9826 73.935C61.6294 68.2819 67.2794 62.6288 72.9325 56.9819C73.2075 56.7069 73.4825 56.41 73.8107 56.2225C74.6857 55.7225 75.5544 55.7944 76.2638 56.5288C76.9763 57.2663 77.0107 58.1319 76.4826 58.9944C76.3044 59.2881 76.0294 59.5256 75.7794 59.7756C70.1044 65.4569 64.4325 71.1413 58.7357 76.8006C58.2388 77.2913 57.5763 77.6163 56.8419 78.1194L56.845 78.1163Z" fill="#EDEEEE"/>
</svg>
